<svg width="48" height="48" viewBox="0 0 48 48" fill="none" xmlns="http://www.w3.org/2000/svg">
<path d="M15.3854 23.6895H0V24.3068H15.3854V23.6895Z" fill="#271E3C"/>
<path d="M45.4115 33.9226L35.6046 30.3381L35.1108 31.1901L43.0673 37.8941L40.9394 40.4404L31.6068 32.5778L30.8511 33.2093L36.9163 43.7589L34.584 45.1109L27.619 32.999L26.6931 33.3348L29.1038 47.0565L27.0581 47.4193L24.5604 33.193L27.0803 32.745L27.1671 32.7295L27.2434 32.6854L29.8755 31.1608L29.9519 31.1165L30.0086 31.0487L31.9596 28.7135L32.016 28.646L32.046 28.5632L33.0847 25.6947L33.1146 25.6122V25.5245V22.4754V22.3877L33.0847 22.3052L32.046 19.4367L32.016 19.3539L31.9596 19.2864L30.0086 16.9512L29.9519 16.8834L29.8755 16.8391L27.2434 15.3145L27.167 15.2703L27.08 15.2549L24.5605 14.8086L27.0582 0.580536L29.1039 0.943429L26.6931 14.6673L27.619 15.003L34.584 2.88899L36.9163 4.24101L30.8511 14.7905L31.6068 15.4221L40.9394 7.55948L43.0673 10.1057L35.1108 16.8098L35.6046 17.6618L45.4115 14.0773L46.7558 17.7819L38.6344 20.75L38.806 21.7196H47.5V26.2802H38.806L38.6344 27.2499L46.7558 30.218L45.4115 33.9226Z" fill="#271E3C" stroke="#271E3C"/>
<path d="M15.751 26.5218L1.29272 31.8054L1.60854 32.6766L16.0668 27.393L15.751 26.5218Z" fill="#271E3C"/>
<path d="M17.0032 29.0856L5.21729 39.0151L6.00746 39.9606L17.7934 30.0311L17.0032 29.0856Z" fill="#271E3C"/>
<path d="M18.8926 31.0278L11.2 44.4058L12.7987 45.3325L20.4914 31.9545L18.8926 31.0278Z" fill="#271E3C"/>
<path d="M21.2939 32.3049L18.6196 47.5173L21.0429 47.9468L23.7172 32.7344L21.2939 32.3049Z" fill="#271E3C"/>
<path d="M21.0478 0.0544348L18.6245 0.483643L21.295 15.6967L23.7183 15.2675L21.0478 0.0544348Z" fill="#271E3C"/>
<path d="M12.7987 2.66698L11.2 3.59375L18.8926 16.9717L20.4914 16.045L12.7987 2.66698Z" fill="#271E3C"/>
<path d="M6.00746 8.03839L5.21729 8.98389L17.0032 18.9134L17.7934 17.9679L6.00746 8.03839Z" fill="#271E3C"/>
<path d="M1.60854 15.3236L1.29272 16.1948L15.751 21.4785L16.0668 20.6073L1.60854 15.3236Z" fill="#271E3C"/>
</svg>
